<?xml version="1.0" encoding="UTF-8" standalone="no"?>
<!-- Created with Inkscape (http://www.inkscape.org/) -->

<svg
   width="294"
   height="48"
   viewBox="0 0 77.787497 12.7"
   version="1.1"
   id="svg52"
   sodipodi:docname="LogoCaption.svg"
   inkscape:version="1.2.1 (9c6d41e, 2022-07-14)"
   inkscape:export-filename="LogoCaption.png"
   inkscape:export-xdpi="96"
   inkscape:export-ydpi="96"
   xmlns:inkscape="http://www.inkscape.org/namespaces/inkscape"
   xmlns:sodipodi="http://sodipodi.sourceforge.net/DTD/sodipodi-0.dtd"
   xmlns:xlink="http://www.w3.org/1999/xlink"
   xmlns="http://www.w3.org/2000/svg"
   xmlns:svg="http://www.w3.org/2000/svg">
  <sodipodi:namedview
     id="namedview54"
     pagecolor="#ffffff"
     bordercolor="#000000"
     borderopacity="0.25"
     inkscape:showpageshadow="false"
     inkscape:pageopacity="0.0"
     inkscape:pagecheckerboard="true"
     inkscape:deskcolor="#d1d1d1"
     inkscape:document-units="mm"
     showgrid="false"
     showborder="true"
     inkscape:zoom="21.483997"
     inkscape:cx="285.81739"
     inkscape:cy="26.833927"
     inkscape:window-width="1527"
     inkscape:window-height="1177"
     inkscape:window-x="759"
     inkscape:window-y="107"
     inkscape:window-maximized="0"
     inkscape:current-layer="svg52" />
  <defs
     id="defs49">
    <rect
       x="54.460152"
       y="11.643205"
       width="143.20021"
       height="24.467997"
       id="rect776" />
    <filter
       x="-0.014563107"
       y="-0.014563107"
       width="1.0291262"
       height="1.0412621"
       filterUnits="objectBoundingBox"
       id="filter-crt0lvdp2e-3"
       inkscape:label="Background-Shadow">
      <feOffset
         dx="0"
         dy="10"
         in="SourceAlpha"
         result="shadowOffsetOuter1"
         id="feOffset218" />
      <feGaussianBlur
         stdDeviation="5"
         in="shadowOffsetOuter1"
         result="shadowBlurOuter1"
         id="feGaussianBlur220" />
      <feColorMatrix
         values="0 0 0 0 0   0 0 0 0 0   0 0 0 0 0  0 0 0 0.3 0"
         type="matrix"
         in="shadowBlurOuter1"
         id="feColorMatrix222" />
    </filter>
    <linearGradient
       id="_Linear2"
       x1="0"
       y1="0"
       x2="1"
       y2="0"
       gradientUnits="userSpaceOnUse"
       gradientTransform="matrix(0.465693,824,-824,0.465693,412,0)">
      <stop
         offset="0"
         style="stop-color:rgb(88, 221, 107);stop-opacity:1"
         id="stop33" />
      <stop
         offset="1"
         style="stop-color:rgb(41, 204, 64);stop-opacity:1"
         id="stop35" />
    </linearGradient>
    <filter
       style="color-interpolation-filters:sRGB"
       inkscape:label="Icon-Shadow"
       id="filter158"
       x="-0.10038404"
       y="-0.14770196"
       width="1.2007681"
       height="1.2877904">
      <feFlood
         flood-opacity="0.2"
         flood-color="rgb(0,0,0)"
         result="flood"
         id="feFlood148" />
      <feComposite
         in="flood"
         in2="SourceGraphic"
         operator="in"
         result="composite1"
         id="feComposite150" />
      <feGaussianBlur
         in="composite1"
         stdDeviation="10"
         result="blur"
         id="feGaussianBlur152" />
      <feOffset
         dx="0"
         dy="20"
         result="offset"
         id="feOffset154" />
      <feComposite
         in="SourceGraphic"
         in2="offset"
         operator="over"
         result="composite2"
         id="feComposite156" />
    </filter>
    <filter
       style="color-interpolation-filters:sRGB"
       inkscape:label="Icon-Glow"
       id="filter326"
       x="-0.066922694"
       y="-0.11115715"
       width="1.1338454"
       height="1.1842468">
      <feFlood
         flood-opacity="0.30000000000000004"
         flood-color="rgb(0,255,133)"
         result="flood"
         id="feFlood316" />
      <feComposite
         in="flood"
         in2="SourceGraphic"
         operator="out"
         result="composite1"
         id="feComposite318" />
      <feGaussianBlur
         in="composite1"
         stdDeviation="10"
         result="blur"
         id="feGaussianBlur320" />
      <feOffset
         dx="0"
         dy="-20"
         result="offset"
         id="feOffset322" />
      <feComposite
         in="offset"
         in2="SourceGraphic"
         operator="atop"
         result="composite2"
         id="feComposite324" />
    </filter>
    <filter
       style="color-interpolation-filters:sRGB"
       inkscape:label="Icon-Inner-Shadow"
       id="filter891"
       x="-0.033461347"
       y="-0.044158321"
       width="1.0669227"
       height="1.0807031">
      <feFlood
         flood-opacity="0.30000000000000004"
         flood-color="rgb(0,0,0)"
         result="flood"
         id="feFlood881" />
      <feComposite
         in="flood"
         in2="SourceGraphic"
         operator="out"
         result="composite1"
         id="feComposite883" />
      <feGaussianBlur
         in="composite1"
         stdDeviation="10"
         result="blur"
         id="feGaussianBlur885" />
      <feOffset
         dx="0"
         dy="-5"
         result="offset"
         id="feOffset887" />
      <feComposite
         in="offset"
         in2="SourceGraphic"
         operator="atop"
         result="composite2"
         id="feComposite889" />
    </filter>
    <filter
       style="color-interpolation-filters:sRGB"
       inkscape:label="Icon-Glow"
       id="filter26386"
       x="-0.15735832"
       y="-0.20382715"
       width="1.3138567"
       height="1.3565354">
      <feFlood
         flood-opacity="0.29826732673267325"
         flood-color="rgb(29,161,237)"
         result="flood"
         id="feFlood26376" />
      <feComposite
         in="flood"
         in2="SourceGraphic"
         operator="out"
         result="composite1"
         id="feComposite26378" />
      <feGaussianBlur
         in="composite1"
         stdDeviation="10"
         result="blur"
         id="feGaussianBlur26380" />
      <feOffset
         dx="0"
         dy="-20"
         result="offset"
         id="feOffset26382" />
      <feComposite
         in="offset"
         in2="SourceGraphic"
         operator="atop"
         result="composite2"
         id="feComposite26384" />
    </filter>
    <filter
       style="color-interpolation-filters:sRGB"
       inkscape:label="Icon-Inner-Shadow"
       id="filter26249"
       x="-0.10562408"
       y="-0.11231292"
       width="1.2103882"
       height="1.2151043">
      <feFlood
         flood-opacity="0.30445544554455445"
         flood-color="rgb(0,0,0)"
         result="flood"
         id="feFlood26239" />
      <feComposite
         in="flood"
         in2="SourceGraphic"
         operator="out"
         result="composite1"
         id="feComposite26241" />
      <feGaussianBlur
         in="composite1"
         stdDeviation="10"
         result="blur"
         id="feGaussianBlur26243" />
      <feOffset
         dx="0"
         dy="-5"
         result="offset"
         id="feOffset26245" />
      <feComposite
         in="offset"
         in2="SourceGraphic"
         operator="atop"
         result="composite2"
         id="feComposite26247" />
    </filter>
    <filter
       x="-0.014563107"
       y="-0.014563107"
       width="1.0291262"
       height="1.0412621"
       filterUnits="objectBoundingBox"
       id="filter-crt0lvdp2e-3-9"
       inkscape:label="Background-Shadow">
      <feOffset
         dx="0"
         dy="10"
         in="SourceAlpha"
         result="shadowOffsetOuter1"
         id="feOffset218-0" />
      <feGaussianBlur
         stdDeviation="5"
         in="shadowOffsetOuter1"
         result="shadowBlurOuter1"
         id="feGaussianBlur220-5" />
      <feColorMatrix
         values="0 0 0 0 0   0 0 0 0 0   0 0 0 0 0  0 0 0 0.3 0"
         type="matrix"
         in="shadowBlurOuter1"
         id="feColorMatrix222-2" />
    </filter>
    <linearGradient
       inkscape:collect="always"
       xlink:href="#linearGradient45370"
       id="linearGradient45372"
       x1="10"
       y1="412"
       x2="834"
       y2="412"
       gradientUnits="userSpaceOnUse"
       gradientTransform="rotate(90,422,412)" />
    <linearGradient
       inkscape:collect="always"
       id="linearGradient45370">
      <stop
         style="stop-color:#1da1ed;stop-opacity:1;"
         offset="0"
         id="stop45366" />
      <stop
         style="stop-color:#1b6ce0;stop-opacity:1;"
         offset="1"
         id="stop45368" />
    </linearGradient>
  </defs>
  <g
     id="Template---Icons---App"
     stroke="none"
     stroke-width="1"
     fill="none"
     fill-rule="evenodd"
     transform="matrix(0.01480186,0,0,0.01480186,0.029604,0.1776243)"
     style="display:inline"
     inkscape:label="Background">
    <path
       d="m 833.99998,256.62707 c 0,-9.78197 0,-19.56493 -0.0561,-29.3479 -0.049,-8.24097 -0.144,-16.47994 -0.368,-24.71691 -0.48399,-17.95293 -1.54299,-36.05987 -4.73596,-53.8128 -3.23798,-18.00894 -8.52594,-34.76987 -16.85888,-51.13281 C 803.7891,81.5337 793.08818,66.81676 780.32028,54.0578 767.55537,41.29885 752.83448,30.60489 736.7456,22.41792 720.36572,14.08295 703.58685,8.7969701 685.55798,5.5599801 c -17.75487,-3.18799 -35.86673,-4.24498 -53.8196,-4.72997999 -8.24294,-0.223 -16.48588,-0.317 -24.73082,-0.368 -9.78793,-0.06 -19.57585,-0.055 -29.36378,-0.055 L 463.99662,1.1175871e-7 H 378.99725 L 267.36107,0.40700011 c -9.80692,0 -19.61385,-0.005 -29.42078,0.055 -8.26194,0.051 -16.51988,0.145 -24.77881,0.368 C 195.16661,1.3150001 177.01374,2.3729901 159.21688,5.5649801 141.16401,8.8009701 124.36013,14.08495 107.95825,22.41392 91.835371,30.60189 77.082481,41.29685 64.290581,54.0578 51.500674,66.81576 40.779753,81.5297 32.572814,97.60965 c -8.355938,16.37094 -13.653899,33.14187 -16.899875,51.16081 -3.195976,17.74593 -4.254969,35.84687 -4.741965,53.7918 -0.221998,8.23797 -0.317998,16.47694 -0.367997,24.71691 -0.06,9.78397 -0.5629959,21.93692 -0.5629959,31.71989 v 110.0896 85.90968 l 0.5079959,112.42859 c 0,9.79597 -0.004,19.59193 0.055,29.3879 0.05,8.25197 0.145999,16.50194 0.368997,24.75091 0.485996,17.97593 1.546989,36.10887 4.745965,53.8858 3.244976,18.03293 8.541937,34.81787 16.890875,51.20181 8.207939,16.10595 18.93086,30.84189 31.721767,43.61885 12.7909,12.77695 27.53979,23.48491 43.659669,31.68388 16.41188,8.34597 33.22376,13.63895 51.28762,16.87994 17.78887,3.19299 35.93574,4.25198 53.92361,4.73698 8.25893,0.223 16.51787,0.318 24.77981,0.368 9.80693,0.059 19.61286,0.059 29.41978,0.059 h 112.64517 85.21037 112.42717 c 9.78793,0 19.57585,0 29.36378,-0.059 8.24494,-0.05 16.48788,-0.145 24.73082,-0.368 17.95986,-0.486 36.07773,-1.54599 53.8406,-4.74098 18.01787,-3.24099 34.78874,-8.53197 51.15962,-16.87294 16.09188,-8.19797 30.81577,-18.90793 43.58168,-31.68688 12.7659,-12.77496 23.46582,-27.5089 31.65776,-43.61185 8.33794,-16.39194 13.6259,-33.18488 16.86588,-51.22981 3.18997,-17.76993 4.24797,-35.89587 4.73296,-53.8648 0.223,-8.24997 0.318,-16.49994 0.367,-24.75091 0.0561,-9.79597 0.0561,-19.59193 0.0561,-29.3879 0,0 0,-110.44359 0,-112.42859 v -85.99968 c 0,-1.466 0,-112.37159 0,-112.37159"
       id="use230"
       style="clip-rule:evenodd;display:inline;fill:#000000;fill-opacity:1;fill-rule:evenodd;stroke-linejoin:round;stroke-miterlimit:2;filter:url(#filter-crt0lvdp2e-3-9)"
       inkscape:label="Shadow" />
    <path
       d="m 10,567.37293 c 0,9.78197 0,19.56493 0.0561,29.3479 0.049,8.24097 0.144,16.47994 0.368,24.71691 0.48399,17.95293 1.54299,36.05987 4.73596,53.8128 3.23798,18.00894 8.52594,34.76987 16.85888,51.13282 8.19194,16.08294 18.89286,30.79988 31.66076,43.55884 12.76491,12.75895 27.4858,23.45291 43.57468,31.63988 16.37988,8.33497 33.15875,13.62095 51.18762,16.85794 17.75487,3.18799 35.86673,4.24499 53.8196,4.72998 8.24294,0.223 16.48588,0.317 24.73082,0.368 9.78793,0.06 19.57585,0.055 29.36378,0.055 L 380.00336,824 h 84.99937 l 111.63618,-0.407 c 9.80692,0 19.61385,0.005 29.42078,-0.055 8.26194,-0.051 16.51988,-0.145 24.77881,-0.368 17.99487,-0.48499 36.14774,-1.54299 53.9446,-4.73498 18.05287,-3.23599 34.85675,-8.51997 51.25863,-16.84894 16.12288,-8.18797 30.87577,-18.88293 43.66767,-31.64388 12.78991,-12.75796 23.51083,-27.4719 31.71777,-43.55184 8.35594,-16.37095 13.6539,-33.14188 16.89987,-51.16082 3.19598,-17.74593 4.25497,-35.84687 4.74197,-53.7918 0.222,-8.23797 0.318,-16.47694 0.36799,-24.71691 0.06,-9.78397 0.563,-21.93692 0.563,-31.71989 v -110.0896 -85.90968 l -0.508,-112.42859 c 0,-9.79597 0.004,-19.59193 -0.055,-29.3879 -0.05,-8.25197 -0.14599,-16.50194 -0.36899,-24.75091 -0.486,-17.97593 -1.54699,-36.10887 -4.74597,-53.8858 -3.24497,-18.03293 -8.54193,-34.81787 -16.89087,-51.20181 C 803.22323,81.2407 792.50031,66.50476 779.7094,53.7278 766.9185,40.95085 752.16961,30.24289 736.04973,22.04392 719.63785,13.69795 702.82597,8.40497 684.76211,5.16398 666.97324,1.97099 648.82637,0.91200003 630.8385,0.42700003 c -8.25893,-0.223 -16.51787,-0.318 -24.77981,-0.368 C 596.25176,3.1250053e-8 586.44583,3.1250053e-8 576.63891,3.1250053e-8 H 463.99374 378.78337 266.3562 c -9.78793,0 -19.57585,0 -29.36378,0.05899999874995 -8.24494,0.05 -16.48788,0.145 -24.73082,0.368 C 194.30174,0.91300003 176.18387,1.97299 158.421,5.16798 140.40313,8.40897 123.63226,13.69995 107.26138,22.04092 91.1695,30.23889 76.44561,40.94885 63.6797,53.7278 50.9138,66.50276 40.21388,81.2367 32.02194,97.33965 c -8.33794,16.39194 -13.6259,33.18488 -16.86588,51.22981 -3.18997,17.76993 -4.24797,35.89587 -4.73296,53.8648 -0.223,8.24997 -0.318,16.49994 -0.367,24.75091 C 10,236.98114 10,246.7771 10,256.57307 c 0,0 0,110.44359 0,112.42859 v 85.99968 c 0,1.466 0,112.37159 0,112.37159"
       id="use339"
       style="display:inline;fill:url(#linearGradient45372);fill-opacity:1;fill-rule:evenodd"
       inkscape:label="Fill" />
  </g>
  <g
     id="g50277"
     inkscape:label="Icon"
     transform="matrix(0.01480186,0,0,0.01480186,-1.302564,-1.3025557)">
    <g
       id="g26254"
       inkscape:label="Glow"
       style="filter:url(#filter26386)">
      <g
         id="g6084"
         inkscape:label="InnerShadow"
         transform="translate(21.862459,13.839426)"
         style="filter:url(#filter26249)">
        <rect
           style="fill:none;fill-opacity:1;stroke:#ffffff;stroke-width:50.0135;stroke-dasharray:none;stroke-opacity:1"
           id="rect3525"
           width="9.2302914"
           height="191.52856"
           x="0.98445761"
           y="840.65845"
           ry="82.495728"
           transform="matrix(0.6954074,-0.71861571,0.6954074,0.71861571,0,0)"
           inkscape:label="Handle"
           rx="82.495728" />
        <ellipse
           style="fill:none;fill-opacity:1;stroke:#ffffff;stroke-width:50;stroke-dasharray:none;stroke-opacity:1"
           id="path111"
           cx="446.18942"
           cy="453.53232"
           rx="188.32211"
           ry="196.51477"
           inkscape:label="Glass" />
      </g>
    </g>
  </g>
  <text
     xml:space="preserve"
     transform="matrix(0.44186369,0,0,0.44186369,-8.652463,-3.2485573)"
     id="text774"
     style="white-space:pre;shape-inside:url(#rect776);display:inline;fill:#333333"
     inkscape:label="Label"><tspan
       x="54.460938"
       y="28.672775"
       id="tspan3453"><tspan
         style="font-size:18.6667px;-inkscape-font-specification:'sans-serif, Normal'"
         id="tspan3451">Custom Search</tspan></tspan></text>
</svg>
