<svg xmlns="http://www.w3.org/2000/svg" viewBox="0 0 6272 1024"><defs><linearGradient id="a" x1="0%" x2="100%" y1="50%" y2="50%"><stop offset="0%" stop-color="#1DA1ED"/><stop offset="100%" stop-color="#1B6CE0"/></linearGradient></defs><g fill="none" fill-rule="evenodd"><path fill="url(#a)" d="M397.402 0H626.6c138.185 0 188.295 14.388 238.813 41.406 50.519 27.017 90.166 66.664 117.184 117.183C1009.613 209.107 1024 259.217 1024 397.402V626.6c0 138.185-14.388 188.295-41.405 238.813-27.018 50.519-66.665 90.166-117.184 117.184C814.894 1009.613 764.784 1024 626.6 1024H397.402c-138.185 0-188.295-14.388-238.813-41.405-50.519-27.018-90.166-66.665-117.183-117.184C14.388 814.894 0 764.784 0 626.6V397.402C0 259.217 14.388 209.107 41.406 158.59 68.423 108.07 108.07 68.423 158.589 41.406 209.107 14.388 259.217 0 397.402 0Z" transform="rotate(90 512 512)"/><g stroke="#FFF" transform="translate(223.353 212.327)"><path stroke-width="62.153" d="m405.425 431.768 8.11-8.111 167.397 167.397c.315.315.397.462.45.639a.909.909 0 0 1 0 .534c-.053.177-.135.324-.45.64l-6.298 6.297c-.315.316-.462.397-.639.45a.909.909 0 0 1-.534 0c-.177-.053-.324-.134-.64-.45L405.425 431.768Z"/><ellipse cx="234.032" cy="244.213" stroke-width="62.136" rx="234.032" ry="244.213"/></g><g fill="#000" fill-rule="nonzero"><path d="M1376.902 707.223c69.487 0 120.564-29.299 144.677-79.858 4.149-8.556 6.223-16.075 6.223-24.113 0-15.297-10.89-26.187-26.706-26.187-12.704 0-20.223 5.705-26.446 19.446-17.372 40.447-52.374 59.893-98.007 59.893-68.708 0-112.267-55.226-112.267-142.602 0-86.599 44.077-142.344 112.008-142.344 43.04 0 79.857 22.298 97.229 64.042 6.482 15.038 15.556 21.78 29.298 21.78 15.557 0 25.928-10.113 25.928-25.67 0-7-1.815-14.778-5.445-22.297-23.335-55.226-78.302-88.673-147.01-88.673-104.489 0-171.383 74.672-171.383 193.162 0 119.267 66.116 193.42 171.901 193.42ZM1675.33 705.926c41.744 0 69.487-18.408 84.525-51.077h1.296v22.816c0 17.112 10.89 28.261 26.965 28.261s26.706-11.149 26.706-28.52V453.13c0-18.668-11.408-29.817-28.002-29.817-16.335 0-28.002 11.149-28.002 29.817v134.046c0 42.522-24.372 70.524-64.82 70.524-38.632 0-58.337-22.298-58.337-63.783V453.131c0-18.668-11.667-29.817-28.002-29.817-16.594 0-28.002 11.149-28.002 29.817v151.677c0 62.486 36.3 101.118 95.674 101.118ZM1970.647 706.186c67.413 0 112.786-33.707 112.786-84.266 0-40.447-22.038-60.93-79.339-74.153l-42.262-9.852c-28.78-6.742-42.003-18.668-42.003-35.78 0-21.261 20.742-36.04 50.818-36.04 27.484 0 44.078 10.89 56.264 31.632 5.444 8.815 13.482 11.926 22.557 11.926 14 0 21.78-8.297 21.78-20.742 0-2.593-.52-5.185-1.038-8.297-7.778-32.15-48.226-57.3-97.488-57.3-64.82 0-107.6 32.669-107.6 81.932 0 38.891 25.927 64.819 78.82 77.264l43.04 10.112c29.298 7 39.929 16.594 39.929 34.484 0 22.557-21.52 36.299-53.411 36.299-32.41 0-48.745-9.853-62.746-31.891-7-10.371-15.038-14.78-24.372-14.78-14 0-24.112 8.298-24.112 22.299 0 3.63.518 7.519 2.333 11.667 12.964 33.447 52.374 55.486 106.044 55.486ZM2143.067 635.662c0 45.114 23.335 67.671 69.227 67.671h2.852c27.483 0 40.447-8.556 40.447-25.409 0-13.223-8.037-19.705-24.113-21.26l-4.407-.26c-20.224-1.555-27.743-11.408-27.743-33.187v-150.64h31.891c14.52 0 23.335-8.297 23.335-22.039s-8.815-22.298-23.335-22.298h-31.89v-40.447c0-17.89-11.15-29.817-28.003-29.817-17.112 0-28.261 11.927-28.261 29.817v40.447h-19.705c-14.52 0-23.335 8.297-23.335 22.298 0 13.742 8.815 22.039 23.335 22.039h19.705v163.085ZM2407.79 706.186c78.042 0 129.378-53.67 129.378-141.566 0-87.636-51.596-141.306-129.379-141.306-77.783 0-129.38 53.67-129.38 141.306 0 87.895 51.338 141.566 129.38 141.566Zm0-46.152c-43.819 0-72.34-34.743-72.34-95.414 0-60.412 28.521-95.155 72.34-95.155 43.817 0 72.337 34.743 72.337 95.155 0 60.671-28.26 95.414-72.338 95.414ZM2608.47 705.926c16.853 0 28.002-11.667 28.002-29.557v-143.9c0-35.002 23.594-60.93 56.781-60.93 31.632 0 51.597 19.965 51.597 51.337V676.37c0 17.89 10.63 29.557 27.483 29.557s27.483-11.667 27.483-29.557V530.655c0-34.484 23.076-59.115 56.264-59.115 33.187 0 52.114 20.223 52.114 55.485v149.344c0 17.89 11.15 29.557 28.002 29.557 16.853 0 28.262-11.667 28.262-29.557V513.542c0-54.188-35.262-89.969-89.192-89.969-38.891 0-71.042 20.224-85.043 53.411h-1.296c-10.89-33.965-38.373-53.41-76.228-53.41-36.817 0-65.338 20.223-77.524 50.558h-1.296v-22.298c0-17.89-11.149-28.52-26.706-28.52-15.816 0-26.705 10.89-26.705 28.52V676.37c0 17.89 11.149 29.557 28.002 29.557ZM3260.293 707.223c87.376 0 142.862-44.337 142.862-114.86 0-54.448-32.15-85.821-110.712-102.415l-40.706-8.556c-48.485-10.371-67.93-28.52-67.93-55.745 0-34.224 32.409-55.485 76.227-55.485 37.336 0 65.856 14.779 78.56 49.263 5.964 13.482 14.52 19.964 28.521 19.964 15.038 0 25.669-9.852 25.669-24.89 0-5.445-.778-9.853-2.075-13.483-14.52-50.04-65.337-80.376-129.897-80.376-79.599 0-135.862 44.077-135.862 108.119 0 53.93 33.966 88.673 108.637 104.489l40.966 8.556c50.04 10.89 69.746 29.039 69.746 58.078 0 33.447-33.966 57.819-81.413 57.819-43.3 0-77.265-16.335-88.932-51.337-5.704-14.001-14.26-19.965-27.484-19.965-15.816 0-26.187 10.89-26.187 27.743 0 6.223 1.297 12.445 3.112 18.15 14.52 43.558 64.3 74.93 136.898 74.93ZM3566.759 706.186c50.818 0 90.488-20.483 108.378-56.264 2.333-5.444 3.889-10.63 3.889-15.038 0-14-9.853-22.816-23.335-22.816-8.038 0-13.742 2.852-19.705 9.852-20.742 28.262-39.929 38.892-70.524 38.892-44.595 0-72.597-31.113-72.597-80.895v-1.296h164.9c17.372 0 27.743-10.371 27.743-28.52 0-74.413-50.04-126.787-122.638-126.787-77.265 0-126.528 56.004-126.528 142.603 0 88.154 48.226 140.269 130.417 140.269Zm-73.635-166.716c2.852-42.521 30.854-71.042 69.486-71.042 38.892 0 65.598 28.261 66.894 71.042h-136.38ZM3808.665 705.667c35.52 0 70.264-19.187 86.08-49.522h1.296v23.076c.519 16.593 11.149 26.705 26.706 26.705 15.816 0 26.964-10.63 26.964-28.261V513.024c0-54.708-42.262-89.71-108.378-89.71-49.003 0-90.228 19.705-104.488 50.559-3.37 6.223-4.927 12.445-4.927 18.15 0 14 10.112 23.334 24.113 23.334 9.853 0 17.113-3.63 22.817-11.926 15.556-24.891 33.446-34.484 60.411-34.484 34.225 0 54.708 18.15 54.708 48.485v21.001l-74.931 4.408c-64.56 3.63-101.378 32.928-101.378 80.635 0 49.003 37.595 82.191 91.007 82.191Zm15.297-44.336c-29.817 0-49.781-15.557-49.781-39.41 0-23.336 18.927-38.114 52.374-40.448l67.412-4.148v21.52c0 35.52-30.854 62.486-70.005 62.486ZM4031.902 705.926c16.594 0 28.002-11.408 28.002-29.557V537.137c0-33.966 15.557-59.634 53.93-59.893 11.667 0 19.964-2.334 25.668-7.26 5.445-4.408 8.297-10.89 8.297-19.705 0-8.816-2.333-15.557-7.519-19.705-4.667-4.408-12.186-6.741-22.038-6.741-27.224 0-52.374 20.482-59.893 51.077h-1.297v-23.335c0-17.112-10.89-28.261-26.446-28.261-15.816 0-26.706 11.149-26.706 28.261V676.37c0 18.15 11.15 29.557 28.002 29.557ZM4283.142 706.186c50.56 0 94.896-26.706 109.156-64.301 2.074-5.445 3.111-10.112 3.111-14.52 0-14-10.112-23.335-23.853-23.335-12.186 0-18.15 4.667-25.928 18.15-13.223 23.594-31.632 37.076-61.967 37.076-43.3 0-72.339-35.261-72.339-94.636 0-58.078 28.52-94.636 72.339-94.636 28.78 0 47.966 12.445 61.967 38.373 6.741 12.445 13.482 17.112 25.41 17.112 13.74 0 23.853-8.815 23.853-23.075 0-3.89-1.037-8.557-2.593-12.964-11.927-38.114-57.041-66.116-109.674-66.116-77.784 0-128.343 55.485-128.343 141.825 0 86.858 50.819 141.047 128.861 141.047ZM4470.859 705.926c16.334 0 28.002-11.149 28.002-29.557v-133.01c0-43.04 25.409-71.56 66.893-71.56 39.41 0 59.634 24.113 59.634 64.3v140.27c0 18.408 11.668 29.557 28.002 29.557 16.594 0 28.261-11.149 28.261-29.557V525.21c0-61.708-35.78-101.637-95.673-101.637-41.484 0-71.301 18.409-86.34 50.3h-1.296V350.976c0-17.631-10.37-29.04-27.742-29.04-17.113 0-27.743 11.409-27.743 29.04v325.393c0 18.408 11.667 29.557 28.002 29.557Z"/></g></g></svg>